<svg id="svg2" 
    xmlns:rdf="http://www.w3.org/1999/02/22-rdf-syntax-ns#" 
    xmlns="http://www.w3.org/2000/svg" height="320" width="1543.4" version="1.1" 
    xmlns:cc="http://creativecommons.org/ns#" 
    xmlns:dc="http://purl.org/dc/elements/1.1/" viewBox="0 0 1543.4268 320.00026">
	<title>logo_title_white</title>
    <g id="layer1" transform="translate(0 -732.36)">
        <g id="text4279" transform="translate(0 732.36)" fill="#305680">
            <g id="g9352" fill="#fff">
                <g id="g8299">
					<path fill="#fff" class="cls-2" d="M362.15,62.94a4,4,0,0,0,4-4V35.88a4,4,0,0,0-7.9,0V59A4,4,0,0,0,362.15,62.94Z"/>
            		<path fill="#fff" class="cls-2" d="M341,62.94a4,4,0,0,0,4-4V35.88a4,4,0,0,0-7.9,0V59A4,4,0,0,0,341,62.94Z"/>
            		<path fill="#fff" class="cls-2" d="M319.48,62.94a4,4,0,0,0,4-4V35.88a4,4,0,0,0-7.9,0V59A4.09,4.09,0,0,0,319.48,62.94Z"/>
					<path fill="#fff" class="cls-2" d="M298.55,62.94a4,4,0,0,0,4-4V35.88a4,4,0,1,0-7.9,0V59A3.84,3.84,0,0,0,298.55,62.94Z"/>
            		<path fill="#fff" class="cls-2" d="M279,62.94a4,4,0,0,0,4-4V35.88a4,4,0,0,0-7.9,0V59A3.84,3.84,0,0,0,279,62.94Z"/>
            		<path fill="#fff" class="cls-2" d="M257.86,62.94a4,4,0,0,0,4-4V35.88a4,4,0,1,0-7.9,0V59A3.84,3.84,0,0,0,257.86,62.94Z"/>
            		<path fill="#fff" class="cls-2" d="M204.53,103H181.42a4,4,0,1,0,0,7.9h23.11a4,4,0,0,0,0-7.9Z"/>
            		<path fill="#fff" class="cls-2" d="M204.53,124.17H181.42a4,4,0,1,0,0,7.9h23.11a4,4,0,0,0,4-4A3.84,3.84,0,0,0,204.53,124.17Z"/>
					<path fill="#fff" class="cls-2" d="M204.53,145.7H181.42a4,4,0,1,0,0,7.9h23.11a4,4,0,0,0,4-4A3.84,3.84,0,0,0,204.53,145.7Z"/>
            		<path fill="#fff" class="cls-2" d="M204.53,166.63H181.42a4,4,0,1,0,0,7.9h23.11a4,4,0,1,0,0-7.9Z"/>
            		<path fill="#fff" class="cls-2" d="M204.53,186.19H181.42a4,4,0,1,0,0,7.9h23.11a4,4,0,1,0,0-7.9Z"/>
            		<path fill="#fff" class="cls-2" d="M204.53,207.32H181.42a4,4,0,0,0,0,7.9h23.11a4,4,0,0,0,0-7.9Z"/>
					<path fill="#fff" class="cls-2" d="M362.15,261a4,4,0,0,0-4,4V288.1a4,4,0,0,0,7.9,0V265A3.84,3.84,0,0,0,362.15,261Z"/>
            		<path fill="#fff" class="cls-2" d="M341,261a4,4,0,0,0-4,4V288.1a4,4,0,0,0,7.9,0V265A3.84,3.84,0,0,0,341,261Z"/>
            		<path fill="#fff" class="cls-2" d="M319.48,261a4,4,0,0,0-4,4V288.1a4,4,0,0,0,7.9,0V265A3.84,3.84,0,0,0,319.48,261Z"/>
            		<path fill="#fff" class="cls-2" d="M298.55,261a4,4,0,0,0-4,4V288.1a4,4,0,1,0,7.9,0V265A4.09,4.09,0,0,0,298.55,261Z"/>
            		<path fill="#fff" class="cls-2" d="M279,261a4,4,0,0,0-4,4V288.1a4,4,0,0,0,7.9,0V265A3.84,3.84,0,0,0,279,261Z"/>
            		<path fill="#fff" class="cls-2" d="M257.86,261a4,4,0,0,0-4,4V288.1a4,4,0,1,0,7.9,0V265A3.84,3.84,0,0,0,257.86,261Z"/>
            		<path fill="#fff" class="cls-2" d="M373,73.21H247.19a23.86,23.86,0,0,0-23.9,23.9V222.92a23.86,23.86,0,0,0,23.9,23.9H373a23.86,23.86,0,0,0,23.9-23.9V97.11A23.86,23.86,0,0,0,373,73.21ZM259.24,111.33a7.7,7.7,0,1,1,7.7-7.7A7.71,7.71,0,0,1,259.24,111.33ZM350.49,198H270.3V117.26h80.19Z"/>
					<path fill="#fff" class="cls-2" d="M410.34,110.74h23.11a4,4,0,1,0,0-7.9H410.34a4,4,0,1,0,0,7.9Z"/>
            		<path fill="#fff" class="cls-2" d="M433.45,124.17H410.34a4,4,0,0,0,0,7.9h23.11a4,4,0,0,0,4-4A3.84,3.84,0,0,0,433.45,124.17Z"/>
            		<path fill="#fff" class="cls-2" d="M433.45,145.7H410.34a4,4,0,0,0,0,7.9h23.11a4,4,0,0,0,4-4A3.84,3.84,0,0,0,433.45,145.7Z"/>
					<path fill="#fff" class="cls-2" d="M433.45,166.63H410.34a4,4,0,1,0,0,7.9h23.11a4,4,0,1,0,0-7.9Z"/>
            		<path fill="#fff" class="cls-2" d="M433.45,186.19H410.34a4,4,0,1,0,0,7.9h23.11a4,4,0,1,0,0-7.9Z"/>
            		<path fill="#fff" class="cls-2" d="M433.45,207.32H410.34a4,4,0,0,0,0,7.9h23.11a4,4,0,1,0,0-7.9Z"/>
					<polygon fill="#47bee2" class="cls-3" points="169.57 155.38 219.54 81.31 225.27 70.84 229.22 82.1 293.81 234.97 409.15 141.94 438.39 160.71 438.39 173.74 409.75 155.57 289.26 252.75 222.9 95.73 178.66 161.5 169.57 155.38"/>
            		<polygon fill="#e5503c" class="cls-4" points="219.94 196.46 304.08 67.28 382.49 242.68 438.39 231.62 438.39 242.68 375.97 255.12 302.3 90.2 228.23 204.36 177.28 241.49 170.76 232.6 219.94 196.46"/>
            		<polygon fill="#fff" class="cls-2" points="166.81 299.76 437.99 299.76 437.99 285.14 181.42 285.14 181.42 28.77 166.81 28.77 166.81 299.76"/>                    
                    <polygon fill="#fff" class="cls-2" points="432.46 265.59 432.46 319.71 469 292.65 432.46 265.59"/>
            		<polygon fill="#fff" class="cls-2" points="147.45 37.07 201.57 37.07 174.51 0.33 147.45 37.07"/>
                    <path fill="#e5503c" class="cls-4" d="M571.9,95.28q-25.08,0-25.08,17.58,0,9.08,5.93,12.93t26.17,9.48q20.24,5.63,28.54,13.43t8.3,24.59q0,21.33-12.15,31.9t-33.08,10.57a196.36,196.36,0,0,1-37.13-4l-7.11-1.38,2.17-17.58q26.66,3.55,40.69,3.55,24.49,0,24.49-21.73,0-8.49-5.53-12.54t-24.89-8.89q-19.36-4.84-28.84-13.33t-9.48-26.86q0-18.37,11.95-27.75t33.08-9.38a216.88,216.88,0,0,1,35.95,3.56l6.91,1.18L611,98.44Q583.36,95.29,571.9,95.28Z"/>
            		<path fill="#e5503c" class="cls-4" d="M640.24,98V75.33h21.53V98Zm0,115.54V114.84h21.53v98.76Z"/>
            		<path fill="#e5503c" class="cls-4" d="M692.39,213.59V73.75h21.53V213.59Z"/>
		            <path fill="#e5503c" class="cls-4" d="M814.84,195.82l5.53-.59.4,16q-22.52,4.54-39.9,4.54-21.93,0-31.5-12t-9.58-38.51q0-52.54,42.86-52.54,41.48,0,41.48,45.23l-1.38,15.41H761.51q.19,12.25,5.33,18T786,197Q800,197,814.84,195.82ZM803,156.71q0-14.61-4.64-20.44t-15.7-5.83q-11.06,0-16.1,6.12t-5.23,20.14Z"/>                   
                    <path fill="#e5503c" class="cls-4" d="M869.75,213.59H848.22V114.84h21.33V121q14.41-8.3,27.26-8.3,19.75,0,27,11.16T931,160.66v52.93H909.65V161.25q0-16-3.46-22.71t-14.12-6.72a49,49,0,0,0-19.36,4l-3,1.18Z"/>
            		<path fill="#e5503c" class="cls-4" d="M1012.55,133.2H985.29v43.45q0,12.05,1.78,16t9.09,4l16.2-.59,1,17.18q-13.24,2.57-20.15,2.57-16.79,0-23-7.7T964,179V133.2H951.32V114.84H964V86.2h21.33v28.64h27.26Z"/>
            		<path fill="#47bee2" class="cls-3" d="M1082.86,213.59V78.3h21.92v135.3Z"/>
            		<path fill="#47bee2" class="cls-3" d="M1139.35,213.59V78.3h21.92v135.3Z"/>
					<path fill="#47bee2" class="cls-3" d="M1287.78,199.17q-12.15,16.59-42.76,16.59t-42.86-16.69q-12.25-16.69-12.24-52.44t12.34-53.13q12.34-17.38,42.76-17.38t42.66,17.28q12.24,17.29,12.24,53.23T1287.78,199.17ZM1219.34,185q6.71,11.65,25.68,11.65t25.58-11.46q6.61-11.45,6.62-38.42t-6.81-39.21q-6.82-12.24-25.38-12.24t-25.48,12.24q-6.92,12.25-6.91,39T1219.34,185Z"/>
					<path fill="#47bee2" class="cls-3" d="M1313.16,97.85V78.3h98.76V97.85h-38.12V213.59h-22.12V97.85Z"/> -->
                </g>
            </g>
        </g>
    </g>
</svg>
